<svg width="124" height="39" viewBox="0 0 124 39" fill="none" xmlns="http://www.w3.org/2000/svg">
<path d="M0.234 0.221998V30H12.246C17.874 30 21.57 26.43 21.57 21.558C21.57 17.694 18.966 15.216 16.278 14.586C18.714 13.788 20.646 11.268 20.646 8.202C20.646 3.624 17.244 0.221998 11.364 0.221998H0.234ZM6.702 12.15V5.724H10.23C12.834 5.724 14.136 6.984 14.136 8.916C14.136 10.932 12.624 12.15 10.314 12.15H6.702ZM6.702 24.582V17.61H10.86C13.464 17.61 14.976 19.038 14.976 21.096C14.976 23.238 13.422 24.582 10.86 24.582H6.702ZM38.9669 9.126C38.5469 9 37.9169 8.916 37.2869 8.916C35.6069 8.916 32.9609 9.588 31.8689 11.94V9.126H25.6949V30H32.0789V20.886C32.0789 16.728 34.3889 15.216 36.9509 15.216C37.5809 15.216 38.2529 15.258 38.9669 15.426V9.126ZM52.0548 38.022L64.9068 9.126H58.1448L53.5248 20.298L48.4428 9.126H41.3028L50.0808 27.186L45.3348 38.022H52.0548ZM66.2708 24.246C66.2708 27.564 68.9168 30.588 73.4948 30.588C76.2668 30.588 78.2828 29.412 79.3748 27.648C79.3748 29.076 79.5428 29.832 79.5848 30H85.3388C85.2968 29.79 85.0868 28.404 85.0868 26.766V16.56C85.0868 12.276 82.6088 8.496 75.8468 8.496C69.7148 8.496 66.9428 12.444 66.6908 15.426L72.2348 16.56C72.3608 15.006 73.5788 13.494 75.8048 13.494C77.8208 13.494 78.8708 14.544 78.8708 15.762C78.8708 16.476 78.4928 17.022 77.3588 17.19L72.4448 17.946C69.0008 18.45 66.2708 20.55 66.2708 24.246ZM75.0488 25.968C73.2848 25.968 72.5708 24.918 72.5708 23.826C72.5708 22.356 73.5788 21.726 74.9228 21.516L78.8708 20.886V21.81C78.8708 25.044 76.9388 25.968 75.0488 25.968ZM96.8425 18.03C96.8425 15.93 98.1865 14.376 100.287 14.376C102.597 14.376 103.689 15.93 103.689 17.988V30H110.073V16.896C110.073 12.318 107.721 8.58 102.471 8.58C100.329 8.58 97.7665 9.546 96.6325 11.52V9.126H90.4585V30H96.8425V18.03Z" fill="white"/>
<path d="M115.185 26.052C115.185 28.362 117.117 30.378 119.469 30.378C121.821 30.378 123.795 28.362 123.795 26.052C123.795 23.7 121.821 21.768 119.469 21.768C117.117 21.768 115.185 23.7 115.185 26.052Z" fill="#FF2F2F"/>
</svg>


