<svg width="36" height="40" viewBox="0 0 36 40" fill="none" xmlns="http://www.w3.org/2000/svg">
<circle cx="17.8216" cy="21.4284" r="16.0716" stroke="white" stroke-width="3.5"/>
<rect x="11" y="6" width="3.3" height="3" fill="white"/>
<path d="M18.782 29.2871C17.7611 29.2871 16.8315 29.0638 15.9929 28.6172C15.1635 28.1615 14.5619 27.6465 14.1882 27.0723L13.8328 28.9863H10.7292V8.4375L14.3113 8.20508V12.8535C14.3113 13.7559 14.2839 14.7812 14.2292 15.9297C15.4141 14.3802 16.9591 13.6055 18.864 13.6055C20.7781 13.6055 22.2774 14.3164 23.3621 15.7383C24.4558 17.1602 25.0027 19.0195 25.0027 21.3164C25.0027 23.7044 24.4376 25.6322 23.3074 27.0996C22.1863 28.5579 20.6778 29.2871 18.782 29.2871ZM17.9207 26.5664C18.9871 26.5664 19.8393 26.1152 20.4773 25.2129C21.1153 24.3105 21.4343 23.0299 21.4343 21.3711C21.4343 19.7031 21.1199 18.4408 20.491 17.584C19.8712 16.7272 19.0281 16.2988 17.9617 16.2988C15.5372 16.2988 14.3113 17.9349 14.2839 21.207C14.2839 23.0482 14.5893 24.4017 15.2 25.2676C15.8106 26.1335 16.7175 26.5664 17.9207 26.5664Z" fill="white"/>
</svg>










