<svg width="38" height="39" viewBox="0 0 38 39" fill="none" xmlns="http://www.w3.org/2000/svg">
<circle cx="19" cy="20" r="17" stroke="white" stroke-width="4"/>
<path d="M28.264 16V4.416H26.136V16H28.264Z" fill="white"/>
<path d="M28.264 16V16.2H28.464V16H28.264ZM28.264 4.416H28.464V4.216H28.264V4.416ZM26.136 4.416V4.216H25.936V4.416H26.136ZM26.136 16H25.936V16.2H26.136V16ZM28.464 16V4.416H28.064V16H28.464ZM28.264 4.216H26.136V4.616H28.264V4.216ZM25.936 4.416V16H26.336V4.416H25.936ZM26.136 16.2H28.264V15.8H26.136V16.2Z" fill="white"/>
<path d="M10.264 34V22.416H8.136V34H10.264Z" fill="white"/>
<path d="M10.264 34V34.2H10.464V34H10.264ZM10.264 22.416H10.464V22.216H10.264V22.416ZM8.136 22.416V22.216H7.936V22.416H8.136ZM8.136 34H7.936V34.2H8.136V34ZM10.464 34V22.416H10.064V34H10.464ZM10.264 22.216H8.136V22.616H10.264V22.216ZM7.936 22.416V34H8.336V22.416H7.936ZM8.136 34.2H10.264V33.8H8.136V34.2Z" fill="white"/>
<path d="M10.264 27.04V23.232C10.648 23.76 11.448 24.192 12.536 24.192C14.76 24.192 16.248 22.432 16.248 20.048C16.248 17.712 14.92 15.952 12.616 15.952C11.432 15.952 10.552 16.48 10.2 17.088V16.128H8.136V27.04H10.264ZM14.152 20.064C14.152 21.472 13.288 22.288 12.2 22.288C11.112 22.288 10.232 21.456 10.232 20.064C10.232 18.672 11.112 17.856 12.2 17.856C13.288 17.856 14.152 18.672 14.152 20.064ZM24.6369 12.416H22.5409V16.912C22.3169 16.496 21.6769 15.936 20.3169 15.936C18.0929 15.936 16.5409 17.744 16.5409 20.048C16.5409 22.432 18.1409 24.192 20.3809 24.192C21.4369 24.192 22.2369 23.712 22.5889 23.088C22.5889 23.456 22.6369 23.84 22.6689 24H24.7009C24.6689 23.68 24.6369 23.104 24.6369 22.576V12.416ZM18.6849 20.048C18.6849 18.64 19.5489 17.84 20.6369 17.84C21.7249 17.84 22.5729 18.624 22.5729 20.032C22.5729 21.456 21.7249 22.288 20.6369 22.288C19.5169 22.288 18.6849 21.456 18.6849 20.048ZM28.2734 24V12.416H26.1454V24H28.2734Z" fill="white"/>
<path d="M10.264 27.04V27.24H10.464V27.04H10.264ZM10.264 23.232L10.4257 23.1144L10.064 22.617V23.232H10.264ZM10.2 17.088H10V17.8326L10.3731 17.1882L10.2 17.088ZM10.2 16.128H10.4V15.928H10.2V16.128ZM8.136 16.128V15.928H7.936V16.128H8.136ZM8.136 27.04H7.936V27.24H8.136V27.04ZM10.464 27.04V23.232H10.064V27.04H10.464ZM10.1023 23.3496C10.5315 23.9399 11.3982 24.392 12.536 24.392V23.992C11.4978 23.992 10.7645 23.5801 10.4257 23.1144L10.1023 23.3496ZM12.536 24.392C13.7043 24.392 14.6874 23.9281 15.3761 23.1462C16.063 22.3663 16.448 21.281 16.448 20.048H16.048C16.048 21.199 15.689 22.1857 15.0759 22.8818C14.4646 23.5759 13.5917 23.992 12.536 23.992V24.392ZM16.448 20.048C16.448 18.8437 16.1056 17.7705 15.4486 16.9947C14.7884 16.2153 13.8233 15.752 12.616 15.752V16.152C13.7127 16.152 14.5636 16.5687 15.1434 17.2533C15.7264 17.9415 16.048 18.9163 16.048 20.048H16.448ZM12.616 15.752C11.3785 15.752 10.4228 16.304 10.0269 16.9878L10.3731 17.1882C10.6812 16.656 11.4855 16.152 12.616 16.152V15.752ZM10.4 17.088V16.128H10V17.088H10.4ZM10.2 15.928H8.136V16.328H10.2V15.928ZM7.936 16.128V27.04H8.336V16.128H7.936ZM8.136 27.24H10.264V26.84H8.136V27.24ZM13.952 20.064C13.952 20.7267 13.7493 21.2313 13.4373 21.5681C13.1257 21.9044 12.6923 22.088 12.2 22.088V22.488C12.7957 22.488 13.3383 22.2636 13.7307 21.8399C14.1227 21.4167 14.352 20.8093 14.352 20.064H13.952ZM12.2 22.088C11.7087 22.088 11.2706 21.901 10.9543 21.5616C10.6378 21.222 10.432 20.7172 10.432 20.064H10.032C10.032 20.8028 10.2662 21.41 10.6617 21.8344C11.0574 22.259 11.6033 22.488 12.2 22.488V22.088ZM10.432 20.064C10.432 19.4109 10.6377 18.9105 10.9536 18.5751C11.2694 18.2398 11.7075 18.056 12.2 18.056V17.656C11.6045 17.656 11.0586 17.8802 10.6624 18.3009C10.2663 18.7215 10.032 19.3251 10.032 20.064H10.432ZM12.2 18.056C12.6923 18.056 13.126 18.2396 13.4376 18.5743C13.7496 18.9094 13.952 19.4098 13.952 20.064H14.352C14.352 19.3262 14.1224 18.7226 13.7304 18.3017C13.338 17.8804 12.7957 17.656 12.2 17.656V18.056ZM24.6369 12.416H24.8369V12.216H24.6369V12.416ZM22.5409 12.416V12.216H22.3409V12.416H22.5409ZM22.5409 16.912L22.3648 17.0068L22.7409 16.912H22.5409ZM22.5889 23.088H22.7889V22.3264L22.4147 22.9897L22.5889 23.088ZM22.6689 24L22.4728 24.0392L22.5049 24.2H22.6689V24ZM24.7009 24V24.2H24.9219L24.8999 23.9801L24.7009 24ZM24.6369 12.216H22.5409V12.616H24.6369V12.216ZM22.3409 12.416V16.912H22.7409V12.416H22.3409ZM22.717 16.8172C22.4516 16.3243 21.7356 15.736 20.3169 15.736V16.136C21.6182 16.136 22.1822 16.6677 22.3648 17.0068L22.717 16.8172ZM20.3169 15.736C17.9631 15.736 16.3409 17.6539 16.3409 20.048H16.7409C16.7409 17.8341 18.2226 16.136 20.3169 16.136V15.736ZM16.3409 20.048C16.3409 22.5267 18.0153 24.392 20.3809 24.392V23.992C18.2664 23.992 16.7409 22.3373 16.7409 20.048H16.3409ZM20.3809 24.392C21.495 24.392 22.3692 23.8845 22.7631 23.1863L22.4147 22.9897C22.1045 23.5395 21.3788 23.992 20.3809 23.992V24.392ZM22.3889 23.088C22.3889 23.4691 22.4382 23.8662 22.4728 24.0392L22.865 23.9608C22.8356 23.8138 22.7889 23.4429 22.7889 23.088H22.3889ZM22.6689 24.2H24.7009V23.8H22.6689V24.2ZM24.8999 23.9801C24.8686 23.6672 24.8369 23.0979 24.8369 22.576H24.4369C24.4369 23.1101 24.4692 23.6928 24.5019 24.0199L24.8999 23.9801ZM24.8369 22.576V12.416H24.4369V22.576H24.8369ZM18.8849 20.048C18.8849 19.3853 19.0875 18.8853 19.3989 18.5527C19.7099 18.2205 20.1434 18.04 20.6369 18.04V17.64C20.0423 17.64 19.4998 17.8595 19.1069 18.2793C18.7142 18.6987 18.4849 19.3027 18.4849 20.048H18.8849ZM20.6369 18.04C21.1313 18.04 21.5604 18.2171 21.8668 18.5446C22.1737 18.8727 22.3729 19.3684 22.3729 20.032H22.7729C22.7729 19.2876 22.5481 18.6873 22.1589 18.2714C21.7693 17.8549 21.2304 17.64 20.6369 17.64V18.04ZM22.3729 20.032C22.3729 20.7044 22.1732 21.2175 21.8643 21.5601C21.5565 21.9016 21.1276 22.088 20.6369 22.088V22.488C21.2341 22.488 21.7733 22.2584 22.1614 21.8279C22.5486 21.3985 22.7729 20.7836 22.7729 20.032H22.3729ZM20.6369 22.088C20.1287 22.088 19.6961 21.9005 19.3891 21.5617C19.0808 21.2216 18.8849 20.7128 18.8849 20.048H18.4849C18.4849 20.7912 18.7049 21.4024 19.0927 21.8303C19.4816 22.2595 20.0251 22.488 20.6369 22.488V22.088ZM28.2734 24V24.2H28.4734V24H28.2734ZM28.2734 12.416H28.4734V12.216H28.2734V12.416ZM26.1454 12.416V12.216H25.9454V12.416H26.1454ZM26.1454 24H25.9454V24.2H26.1454V24ZM28.4734 24V12.416H28.0734V24H28.4734ZM28.2734 12.216H26.1454V12.616H28.2734V12.216ZM25.9454 12.416V24H26.3454V12.416H25.9454ZM26.1454 24.2H28.2734V23.8H26.1454V24.2Z" fill="white"/>
</svg>












